<svg xmlns="http://www.w3.org/2000/svg" viewBox="0 0 512 512" role="img" aria-label="PharmaPromo favicon">
  <defs>
    <linearGradient id="pillBlue" x1="110" y1="370" x2="270" y2="190" gradientUnits="userSpaceOnUse">
      <stop offset="0" stop-color="#0B45D9"/>
      <stop offset="1" stop-color="#4FC3F7"/>
    </linearGradient>
    <linearGradient id="pillShadow" x1="115" y1="350" x2="260" y2="220" gradientUnits="userSpaceOnUse">
      <stop offset="0" stop-color="#061B5B" stop-opacity="0.18"/>
      <stop offset="1" stop-color="#FFFFFF" stop-opacity="0"/>
    </linearGradient>
    <linearGradient id="pinkBig" x1="260" y1="90" x2="410" y2="255" gradientUnits="userSpaceOnUse">
      <stop offset="0" stop-color="#FF8BAB"/>
      <stop offset="1" stop-color="#FF2F84"/>
    </linearGradient>
    <linearGradient id="pinkSmall" x1="250" y1="15" x2="330" y2="95" gradientUnits="userSpaceOnUse">
      <stop offset="0" stop-color="#FF7FA6"/>
      <stop offset="1" stop-color="#FF2F84"/>
    </linearGradient>
    <linearGradient id="cyan" x1="45" y1="150" x2="130" y2="235" gradientUnits="userSpaceOnUse">
      <stop offset="0" stop-color="#3FD8D0"/>
      <stop offset="1" stop-color="#24B8A9"/>
    </linearGradient>
  </defs>

  <circle cx="94" cy="190" r="54" fill="url(#cyan)"/>
  <circle cx="292" cy="64" r="56" fill="url(#pinkSmall)"/>
  <circle cx="338" cy="182" r="94" fill="url(#pinkBig)"/>

  <g transform="rotate(-42 220 305)">
    <rect x="115" y="205" width="205" height="240" rx="78" fill="url(#pillBlue)"/>
    <path d="M115 325h205v42c0 43-35 78-78 78h-49c-43 0-78-35-78-78v-42z" fill="#0B45D9" opacity="0.45"/>
    <rect x="207" y="184" width="50" height="282" rx="6" fill="#39C6F4"/>
    <path d="M115 205h205v120H115z" fill="url(#pillShadow)"/>
  </g>
</svg>
